<svg width="28" height="28" viewBox="0 0 28 28" fill="none" xmlns="http://www.w3.org/2000/svg">
<path d="M24.2064 17.3011C24.0713 16.3239 23.3469 15.562 22.4143 15.3349C18.7895 14.45 17.8808 12.2758 17.7275 9.8642C17.0847 9.73967 15.9411 9.60488 14 9.60488C12.0589 9.60488 10.9153 9.73967 10.2725 9.8642C10.1192 12.2758 9.21051 14.45 5.58568 15.3349C4.6531 15.5635 3.9287 16.3239 3.79366 17.3011L3.09458 22.3441C2.84842 24.1198 4.10031 25.7212 5.84169 25.7212H22.1583C23.8983 25.7212 25.1516 24.1198 24.9054 22.3441L24.2064 17.3011ZM14 22.0466C12.0378 22.0466 10.4469 20.4057 10.4469 18.3839C10.4469 16.362 12.0378 14.7211 14 14.7211C15.9622 14.7211 17.5531 16.362 17.5531 18.3839C17.5531 20.4057 15.9608 22.0466 14 22.0466ZM27.9958 8.13976C27.962 5.94209 22.5916 2.28076 14 2.2793C5.40704 2.28076 0.0366162 5.94209 0.00426425 8.13976C-0.0280877 10.3374 0.0338031 13.1973 3.57001 12.7212C7.70685 12.163 7.45225 10.6583 7.45225 8.50751C7.45225 7.00723 10.8169 6.64534 14 6.64534C17.1832 6.64534 20.5464 7.00723 20.5478 8.50751C20.5478 10.6583 20.2932 12.163 24.43 12.7212C27.9648 13.1973 28.0281 10.3374 27.9958 8.13976Z" fill="#267AC7"/>
</svg>
