<svg width="55" height="55" viewBox="0 0 55 55" fill="none" xmlns="http://www.w3.org/2000/svg">
<path d="M20.3055 21.6945C21.5823 21.6945 22.8465 21.4431 24.0261 20.9545C25.2056 20.4659 26.2774 19.7497 27.1802 18.8469C28.083 17.9441 28.7991 16.8724 29.2877 15.6928C29.7763 14.5133 30.0278 13.249 30.0278 11.9723C30.0278 10.6955 29.7763 9.43127 29.2877 8.25171C28.7991 7.07215 28.083 6.00038 27.1802 5.09759C26.2774 4.19479 25.2056 3.47865 24.0261 2.99006C22.8465 2.50147 21.5823 2.25 20.3055 2.25C17.727 2.25 15.2542 3.27431 13.4309 5.09759C11.6076 6.92086 10.5833 9.39376 10.5833 11.9723C10.5833 14.5508 11.6076 17.0237 13.4309 18.8469C15.2542 20.6702 17.727 21.6945 20.3055 21.6945Z" stroke="white" stroke-width="4.5" stroke-linejoin="round"/>
<path d="M43.9167 34.1946V50.8613M35.5833 42.5279H52.25M31.4167 32.8057H20.0278C13.8056 32.8057 10.6944 32.8057 8.31667 34.0168C6.22607 35.082 4.52635 36.7818 3.46111 38.8724C2.25 41.2501 2.25 44.3613 2.25 50.5835V52.2502H31.4167" stroke="white" stroke-width="4.5" stroke-linecap="round" stroke-linejoin="round"/>
</svg>
