<svg width="54" height="54" viewBox="0 0 54 54" fill="none" xmlns="http://www.w3.org/2000/svg">
<path d="M27.0001 13.1113V24.2224M32.0001 52V43.6668C32.0001 42.1933 31.4733 40.7803 30.5357 39.7384C29.598 38.6965 28.3262 38.1112 27.0001 38.1112C25.674 38.1112 24.4023 38.6965 23.4646 39.7384C22.5269 40.7803 22.0001 42.1933 22.0001 43.6668V52M32.0001 18.6669H22.0001" stroke="white" stroke-width="4" stroke-linecap="round" stroke-linejoin="round"/>
<path d="M42 24.222H47C48.3261 24.222 49.5979 24.8073 50.5355 25.8491C51.4732 26.891 52 28.3041 52 29.7775V46.4441C52 47.9175 51.4732 49.3306 50.5355 50.3725C49.5979 51.4143 48.3261 51.9996 47 51.9996H7C5.67392 51.9996 4.40215 51.4143 3.46447 50.3725C2.52678 49.3306 2 47.9175 2 46.4441V21.4442C2 19.9708 2.52678 18.5577 3.46447 17.5159C4.40215 16.474 5.67392 15.8887 7 15.8887H12" stroke="white" stroke-width="4" stroke-linecap="round" stroke-linejoin="round"/>
<path d="M42 51.9998V7.55553C42 6.08211 41.4732 4.66904 40.5355 3.62718C39.5979 2.58531 38.3261 2 37 2H17C15.6739 2 14.4021 2.58531 13.4645 3.62718C12.5268 4.66904 12 6.08211 12 7.55553V51.9998" stroke="white" stroke-width="4" stroke-linecap="round" stroke-linejoin="round"/>
</svg>
