<svg width="54" height="54" viewBox="0 0 54 54" fill="none" xmlns="http://www.w3.org/2000/svg">
<path d="M13.4058 2H14.513C20.344 2.90789 21.9249 6.39211 27.0062 6.39211C32.0874 6.39211 33.6683 2.90789 39.5006 2H40.1279C41.687 2 43.2308 2.32332 44.6712 2.95151C46.1116 3.57969 47.4203 4.50043 48.5228 5.66117C49.6252 6.8219 50.4997 8.19989 51.0963 9.71646C51.6929 11.233 52 12.8585 52 14.5V15.3237C52 19.1434 48.1385 23.5039 47.0012 27.6355C45.7953 32.0224 44.9692 35.6092 44.7268 39.3605C44.1582 48.1513 41.3114 52 38.2534 52C33.687 52 29.633 32.2961 27.0849 32.2961C24.5355 32.2961 19.4805 52 15.7589 52C13.4882 52 10.5477 50.5855 9.44298 39.3605C9.00309 34.8947 8.26078 32.1855 7.01108 27.6355C5.91135 23.6355 2.20227 18.8566 2.01231 14.5671C1.94066 12.9448 2.18226 11.3241 2.72251 9.80295C3.26275 8.2818 4.09042 6.89182 5.15545 5.71708C6.22048 4.54234 7.50075 3.60724 8.91882 2.96834C10.3369 2.32945 11.8633 2.00003 13.4058 2Z" stroke="white" stroke-width="4"/>
<path d="M16.3613 11.8198L37.005 18.8277M16.3613 18.8277L37.005 11.8198" stroke="white" stroke-width="4" stroke-linecap="round"/>
</svg>
