<svg width="34" height="33" viewBox="0 0 34 33" fill="none" xmlns="http://www.w3.org/2000/svg">
<path d="M17.1887 10.5352C20.3106 10.5354 22.8411 13.0666 22.8411 16.1885C22.8409 19.3102 20.3105 21.8406 17.1887 21.8408C14.0668 21.8408 11.5356 19.3103 11.5354 16.1885C11.5354 13.0664 14.0667 10.5352 17.1887 10.5352Z" stroke="#686868" stroke-width="3"/>
<line x1="17.3118" y1="6.55671e-08" x2="17.3118" y2="6.77648" stroke="#686868" stroke-width="3"/>
<line x1="17.3118" y1="25.5996" x2="17.3118" y2="32.3761" stroke="#686868" stroke-width="3"/>
<line x1="34" y1="17.6885" x2="27.2235" y2="17.6885" stroke="#686868" stroke-width="3"/>
<line x1="6.77649" y1="17.3115" x2="1.75118e-05" y2="17.3115" stroke="#686868" stroke-width="3"/>
<line x1="30.3192" y1="5.80187" x2="25.5275" y2="10.5936" stroke="#686868" stroke-width="3"/>
<line x1="10.5939" y1="23.9044" x2="5.80217" y2="28.6961" stroke="#686868" stroke-width="3"/>
<line x1="28.1979" y1="28.6964" x2="23.4062" y2="23.9047" stroke="#686868" stroke-width="3"/>
<line x1="8.73866" y1="10.3273" x2="3.94697" y2="5.53557" stroke="#686868" stroke-width="3"/>
</svg>
